<svg width="36" height="36" viewBox="0 0 36 36" fill="none" xmlns="http://www.w3.org/2000/svg">
<rect width="36" height="36" rx="18" fill="#3493FB"/>
<path d="M24.0672 17.1922C24.0092 17.2503 23.9402 17.2964 23.8643 17.3279C23.7885 17.3593 23.7071 17.3755 23.625 17.3755C23.5429 17.3755 23.4615 17.3593 23.3857 17.3279C23.3098 17.2964 23.2409 17.2503 23.1828 17.1922L18.625 12.6336V24.875C18.625 25.0408 18.5592 25.1997 18.442 25.3169C18.3247 25.4342 18.1658 25.5 18 25.5C17.8343 25.5 17.6753 25.4342 17.5581 25.3169C17.4409 25.1997 17.375 25.0408 17.375 24.875V12.6336L12.8172 17.1922C12.6999 17.3095 12.5409 17.3754 12.375 17.3754C12.2092 17.3754 12.0501 17.3095 11.9328 17.1922C11.8155 17.0749 11.7497 16.9159 11.7497 16.75C11.7497 16.5842 11.8155 16.4251 11.9328 16.3078L17.5578 10.6828C17.6159 10.6247 17.6848 10.5786 17.7607 10.5472C17.8365 10.5157 17.9179 10.4995 18 10.4995C18.0821 10.4995 18.1635 10.5157 18.2393 10.5472C18.3152 10.5786 18.3842 10.6247 18.4422 10.6828L24.0672 16.3078C24.1253 16.3659 24.1714 16.4348 24.2029 16.5107C24.2343 16.5865 24.2505 16.6679 24.2505 16.75C24.2505 16.8321 24.2343 16.9135 24.2029 16.9893C24.1714 17.0652 24.1253 17.1341 24.0672 17.1922Z" fill="black"/>
</svg>
