<svg width="18" height="18" viewBox="0 0 18 18" fill="none" xmlns="http://www.w3.org/2000/svg">
<path d="M17.25 1.5V6C17.25 6.19891 17.171 6.38968 17.0303 6.53033C16.8897 6.67098 16.6989 6.75 16.5 6.75C16.3011 6.75 16.1103 6.67098 15.9697 6.53033C15.829 6.38968 15.75 6.19891 15.75 6V3.31031L11.0306 8.03063C10.8899 8.17136 10.699 8.25042 10.5 8.25042C10.301 8.25042 10.1101 8.17136 9.96937 8.03063C9.82864 7.88989 9.74958 7.69902 9.74958 7.5C9.74958 7.30098 9.82864 7.11011 9.96937 6.96937L14.6897 2.25H12C11.8011 2.25 11.6103 2.17098 11.4697 2.03033C11.329 1.88968 11.25 1.69891 11.25 1.5C11.25 1.30109 11.329 1.11032 11.4697 0.96967C11.6103 0.829018 11.8011 0.75 12 0.75H16.5C16.6989 0.75 16.8897 0.829018 17.0303 0.96967C17.171 1.11032 17.25 1.30109 17.25 1.5ZM6.96937 9.96937L2.25 14.6897V12C2.25 11.8011 2.17098 11.6103 2.03033 11.4697C1.88968 11.329 1.69891 11.25 1.5 11.25C1.30109 11.25 1.11032 11.329 0.96967 11.4697C0.829018 11.6103 0.75 11.8011 0.75 12V16.5C0.75 16.6989 0.829018 16.8897 0.96967 17.0303C1.11032 17.171 1.30109 17.25 1.5 17.25H6C6.19891 17.25 6.38968 17.171 6.53033 17.0303C6.67098 16.8897 6.75 16.6989 6.75 16.5C6.75 16.3011 6.67098 16.1103 6.53033 15.9697C6.38968 15.829 6.19891 15.75 6 15.75H3.31031L8.03063 11.0306C8.17136 10.8899 8.25042 10.699 8.25042 10.5C8.25042 10.301 8.17136 10.1101 8.03063 9.96937C7.88989 9.82864 7.69902 9.74958 7.5 9.74958C7.30098 9.74958 7.11011 9.82864 6.96937 9.96937Z" fill="black"/>
</svg>
