<svg width="36" height="36" viewBox="0 0 36 36" fill="none" xmlns="http://www.w3.org/2000/svg">
<rect width="36" height="36" rx="18" fill="black" fill-opacity="0.5"/>
<path d="M24.6667 10H11.3333C10.9797 10 10.6406 10.1405 10.3905 10.3905C10.1405 10.6406 10 10.9797 10 11.3333V24.6667C10 25.0203 10.1405 25.3594 10.3905 25.6095C10.6406 25.8595 10.9797 26 11.3333 26H24.6667C25.0203 26 25.3594 25.8595 25.6095 25.6095C25.8595 25.3594 26 25.0203 26 24.6667V11.3333C26 10.9797 25.8595 10.6406 25.6095 10.3905C25.3594 10.1405 25.0203 10 24.6667 10ZM11.3333 11.3333H24.6667V17.7817L22.6092 15.7233C22.3591 15.4735 22.0201 15.3331 21.6667 15.3331C21.3132 15.3331 20.9742 15.4735 20.7242 15.7233L11.7808 24.6667H11.3333V11.3333ZM24.6667 24.6667H13.6667L21.6667 16.6667L24.6667 19.6667V24.6667ZM15.3333 17.3333C15.7289 17.3333 16.1156 17.216 16.4445 16.9963C16.7734 16.7765 17.0297 16.4642 17.1811 16.0987C17.3325 15.7332 17.3721 15.3311 17.2949 14.9432C17.2177 14.5552 17.0273 14.1988 16.7475 13.9191C16.4678 13.6394 16.1115 13.4489 15.7235 13.3718C15.3356 13.2946 14.9334 13.3342 14.568 13.4856C14.2025 13.6369 13.8902 13.8933 13.6704 14.2222C13.4506 14.5511 13.3333 14.9378 13.3333 15.3333C13.3333 15.8638 13.544 16.3725 13.9191 16.7475C14.2942 17.1226 14.8029 17.3333 15.3333 17.3333ZM15.3333 14.6667C15.4652 14.6667 15.5941 14.7058 15.7037 14.779C15.8133 14.8523 15.8988 14.9564 15.9493 15.0782C15.9997 15.2 16.0129 15.3341 15.9872 15.4634C15.9615 15.5927 15.898 15.7115 15.8047 15.8047C15.7115 15.898 15.5927 15.9615 15.4634 15.9872C15.3341 16.0129 15.2 15.9997 15.0782 15.9493C14.9564 15.8988 14.8523 15.8133 14.779 15.7037C14.7058 15.5941 14.6667 15.4652 14.6667 15.3333C14.6667 15.1565 14.7369 14.987 14.8619 14.8619C14.987 14.7369 15.1565 14.6667 15.3333 14.6667Z" fill="white"/>
</svg>
